<svg width="52" height="53" viewBox="0 0 52 53" fill="none" xmlns="http://www.w3.org/2000/svg">
<rect width="52" height="53" fill="#F4DBDB"/>
<path d="M18.2812 9.52344H17.875C18.0984 9.52344 18.2812 9.33711 18.2812 9.10938V9.52344H33.7188V9.10938C33.7188 9.33711 33.9016 9.52344 34.125 9.52344H33.7188V13.25H37.375V9.10938C37.375 7.28232 35.9176 5.79688 34.125 5.79688H17.875C16.0824 5.79688 14.625 7.28232 14.625 9.10938V13.25H18.2812V9.52344ZM43.875 13.25H8.125C7.22617 13.25 6.5 13.9901 6.5 14.9062V16.5625C6.5 16.7902 6.68281 16.9766 6.90625 16.9766H9.97344L11.2277 44.0459C11.309 45.8108 12.741 47.2031 14.4727 47.2031H37.5273C39.2641 47.2031 40.691 45.816 40.7723 44.0459L42.0266 16.9766H45.0938C45.3172 16.9766 45.5 16.7902 45.5 16.5625V14.9062C45.5 13.9901 44.7738 13.25 43.875 13.25ZM37.1363 43.4766H14.8637L13.6348 16.9766H38.3652L37.1363 43.4766Z" fill="#E08585"/>
</svg>
