<svg width="88" height="36" viewBox="0 0 88 36" fill="none" xmlns="http://www.w3.org/2000/svg">
<rect width="41.1429" height="36" rx="5.14286" fill="#E7E7E7"/>
<path d="M14.8497 23.4C14.8947 23.4 14.9397 23.3955 14.9847 23.3888L18.7692 22.725C18.8142 22.716 18.8569 22.6958 18.8884 22.662L28.4262 13.1242C28.447 13.1034 28.4636 13.0787 28.4749 13.0515C28.4862 13.0243 28.492 12.9951 28.492 12.9656C28.492 12.9362 28.4862 12.907 28.4749 12.8798C28.4636 12.8525 28.447 12.8278 28.4262 12.807L24.6867 9.06525C24.6439 9.0225 24.5877 9 24.5269 9C24.4662 9 24.4099 9.0225 24.3672 9.06525L14.8294 18.603C14.7957 18.6368 14.7754 18.6772 14.7664 18.7222L14.1027 22.5068C14.0808 22.6273 14.0886 22.7513 14.1255 22.8682C14.1623 22.985 14.2271 23.0911 14.3142 23.1772C14.4627 23.3212 14.6494 23.4 14.8497 23.4ZM16.3662 19.476L24.5269 11.3175L26.1762 12.9667L18.0154 21.1253L16.0152 21.4785L16.3662 19.476ZM28.8514 25.29H12.2914C11.8932 25.29 11.5714 25.6118 11.5714 26.01V26.82C11.5714 26.919 11.6524 27 11.7514 27H29.3914C29.4904 27 29.5714 26.919 29.5714 26.82V26.01C29.5714 25.6118 29.2497 25.29 28.8514 25.29Z" fill="#999999"/>
<rect x="46.1429" width="41.1429" height="36" rx="5.14286" fill="#F4DBDB"/>
<path d="M63.1517 10.62H62.9642C63.0674 10.62 63.1517 10.539 63.1517 10.44V10.62H70.2767V10.44C70.2767 10.539 70.3611 10.62 70.4642 10.62H70.2767V12.24H71.9642V10.44C71.9642 9.64575 71.2916 9 70.4642 9H62.9642C62.1369 9 61.4642 9.64575 61.4642 10.44V12.24H63.1517V10.62ZM74.9642 12.24H58.4642C58.0494 12.24 57.7142 12.5618 57.7142 12.96V13.68C57.7142 13.779 57.7986 13.86 57.9017 13.86H59.3174L59.8963 25.6275C59.9338 26.3948 60.5947 27 61.3939 27H72.0345C72.8361 27 73.4947 26.397 73.5322 25.6275L74.1111 13.86H75.5267C75.6299 13.86 75.7142 13.779 75.7142 13.68V12.96C75.7142 12.5618 75.3791 12.24 74.9642 12.24ZM71.8541 25.38H61.5744L61.0072 13.86H72.4213L71.8541 25.38Z" fill="#E08585"/>
</svg>
