<svg width="48" height="53" viewBox="0 0 48 53" fill="none" xmlns="http://www.w3.org/2000/svg">
<rect width="48" height="53" fill="#E7E7E7"/>
<path d="M12.0797 38.9219C12.1734 38.9219 12.2672 38.9115 12.3609 38.896L20.2453 37.3691C20.3391 37.3484 20.4281 37.3019 20.4938 37.2242L40.3641 15.2841C40.4075 15.2362 40.442 15.1793 40.4655 15.1167C40.489 15.0541 40.5011 14.987 40.5011 14.9192C40.5011 14.8514 40.489 14.7843 40.4655 14.7217C40.442 14.6591 40.4075 14.6022 40.3641 14.5543L32.5734 5.94697C32.4844 5.84863 32.3672 5.79688 32.2406 5.79688C32.1141 5.79688 31.9969 5.84863 31.9078 5.94697L12.0375 27.8871C11.9672 27.9647 11.925 28.0579 11.9062 28.1614L10.5234 36.8671C10.4778 37.1444 10.4941 37.4297 10.5709 37.6985C10.6477 37.9672 10.7826 38.2113 10.9641 38.4095C11.2734 38.7407 11.6625 38.9219 12.0797 38.9219V38.9219ZM15.2391 29.8953L32.2406 11.1279L35.6766 14.9218L18.675 33.6892L14.5078 34.5018L15.2391 29.8953V29.8953ZM41.25 43.2695H6.75C5.92031 43.2695 5.25 44.0097 5.25 44.9258V46.7891C5.25 47.0168 5.41875 47.2031 5.625 47.2031H42.375C42.5813 47.2031 42.75 47.0168 42.75 46.7891V44.9258C42.75 44.0097 42.0797 43.2695 41.25 43.2695Z" fill="#999999"/>
</svg>
